<?xml version="1.0" encoding="UTF-8" standalone="no"?>
<!DOCTYPE svg PUBLIC "-//W3C//DTD SVG 1.1//EN" "http://www.w3.org/Graphics/SVG/1.1/DTD/svg11.dtd">
<svg width="100%" height="100%" viewBox="0 0 309 135" version="1.1" xmlns="http://www.w3.org/2000/svg" xmlns:xlink="http://www.w3.org/1999/xlink" xml:space="preserve" xmlns:serif="http://www.serif.com/" style="fill-rule:evenodd;clip-rule:evenodd;stroke-linecap:round;stroke-linejoin:round;stroke-miterlimit:10;">
    <g id="Artboard1" transform="matrix(1,0,0,1,-22.0669,-27.108)">
        <rect x="22.067" y="27.108" width="308.853" height="134.693" style="fill:none;"/>
        <g transform="matrix(1,0,0,1,0.0669013,0.108039)">
            <path d="M153.9,94.3C167.3,81.3 184.4,72.1 203.6,68.6" style="fill:none;fill-rule:nonzero;stroke:rgb(53,168,224);stroke-width:3.7px;"/>
            <path d="M266.3,78.1C281.1,85.9 293.7,97.5 302.7,111.6" style="fill:none;fill-rule:nonzero;stroke:rgb(53,168,224);stroke-width:3.7px;"/>
            <path d="M224.5,67C234.2,67.3 243.6,69.1 252.4,72.1" style="fill:none;fill-rule:nonzero;stroke:rgb(53,168,224);stroke-width:3.7px;"/>
            <path d="M230.4,50.3C251.9,52 271.7,59.7 288.2,71.8" style="fill:none;fill-rule:nonzero;stroke:rgb(53,168,224);stroke-width:3.7px;"/>
            <path d="M207.5,50.8C211.3,50.3 215.2,50.1 219.1,50" style="fill:none;fill-rule:nonzero;stroke:rgb(53,168,224);stroke-width:3.7px;"/>
            <path d="M135.3,89.2C149,73.4 167.1,61.4 187.6,55" style="fill:none;fill-rule:nonzero;stroke:rgb(53,168,224);stroke-width:3.7px;"/>
            <path d="M136.8,111.5C131.9,115.6 126.5,119.3 120.9,122.4" style="fill:none;fill-rule:nonzero;stroke:rgb(53,168,224);stroke-width:3.7px;"/>
            <path d="M40.4,127.8C38.7,127.1 36.9,126.4 35.3,125.7" style="fill:none;fill-rule:nonzero;stroke:rgb(53,168,224);stroke-width:3.7px;"/>
            <path d="M98.7,131.1C91,133.1 83,134.1 74.7,134.1C69.2,134.1 63.8,133.6 58.5,132.8" style="fill:none;fill-rule:nonzero;stroke:rgb(53,168,224);stroke-width:3.7px;"/>
            <path d="M120.5,102.5C110.1,109.8 98,114.7 84.8,116.3" style="fill:none;fill-rule:nonzero;stroke:rgb(53,168,224);stroke-width:3.7px;"/>
            <path d="M71.6,116.9C64.6,116.6 57.8,115.4 51.3,113.4" style="fill:none;fill-rule:nonzero;stroke:rgb(53,168,224);stroke-width:3.7px;"/>
            <path d="M299.3,81C304,85.5 308.4,90.4 312.3,95.6" style="fill:none;fill-rule:nonzero;stroke:rgb(53,168,224);stroke-width:3.7px;"/>
        </g>
    </g>
</svg>
