<?xml version="1.0" encoding="UTF-8" standalone="no"?>
<!DOCTYPE svg PUBLIC "-//W3C//DTD SVG 1.1//EN" "http://www.w3.org/Graphics/SVG/1.1/DTD/svg11.dtd">
<svg width="100%" height="100%" viewBox="0 0 158 134" version="1.1" xmlns="http://www.w3.org/2000/svg" xmlns:xlink="http://www.w3.org/1999/xlink" xml:space="preserve" xmlns:serif="http://www.serif.com/" style="fill-rule:evenodd;clip-rule:evenodd;stroke-linecap:round;stroke-linejoin:round;stroke-miterlimit:10;">
    <g id="Artboard1" transform="matrix(0.946149,0,0,1,-687.961,-35.3984)">
        <rect x="727.117" y="35.398" width="166.712" height="133.057" style="fill:none;"/>
        <g transform="matrix(1.05692,0,0,1,-41.261,0.398415)">
            <path d="M805.7,91.6C804.1,89.2 802.8,86.6 801.8,83.8" style="fill:none;fill-rule:nonzero;stroke:rgb(53,168,224);stroke-width:3.7px;"/>
            <path d="M862.1,91.4C856.1,100.6 845.7,106.7 833.9,106.7C825.8,106.7 818.4,103.9 812.6,99.1" style="fill:none;fill-rule:nonzero;stroke:rgb(53,168,224);stroke-width:3.7px;"/>
            <path d="M810.8,118.5C809.8,118 808.8,117.4 807.8,116.9" style="fill:none;fill-rule:nonzero;stroke:rgb(53,168,224);stroke-width:3.7px;"/>
            <path d="M841.3,123.5C838.9,123.9 836.4,124 833.8,124C829,124 824.3,123.3 819.8,122.1" style="fill:none;fill-rule:nonzero;stroke:rgb(53,168,224);stroke-width:3.7px;"/>
            <path d="M861.9,115.6C859.2,117.4 856.2,119 853.1,120.2" style="fill:none;fill-rule:nonzero;stroke:rgb(53,168,224);stroke-width:3.7px;"/>
            <path d="M797.1,108.4C791.8,102.9 787.8,96.3 785.4,89" style="fill:none;fill-rule:nonzero;stroke:rgb(53,168,224);stroke-width:3.7px;"/>
            <path d="M759.3,74.5C760.8,77.2 762.2,80.1 763.3,83" style="fill:none;fill-rule:nonzero;stroke:rgb(53,168,224);stroke-width:3.7px;"/>
            <path d="M751.6,63.4C752.7,64.7 753.8,66.1 754.8,67.5" style="fill:none;fill-rule:nonzero;stroke:rgb(53,168,224);stroke-width:3.7px;"/>
            <path d="M861.9,137.3C853.3,141.1 843.8,143.1 833.8,143.1C801.8,143.1 774.8,121.7 766.4,92.4" style="fill:none;fill-rule:nonzero;stroke:rgb(53,168,224);stroke-width:3.7px;"/>
            <path d="M861.9,115.6C859.2,117.4 856.2,119 853.1,120.2" style="fill:none;fill-rule:nonzero;stroke:rgb(53,168,224);stroke-width:3.7px;"/>
            <path d="M797.1,108.4C791.8,102.9 787.8,96.3 785.4,89" style="fill:none;fill-rule:nonzero;stroke:rgb(53,168,224);stroke-width:3.7px;"/>
            <path d="M810.8,118.5C809.8,118 808.8,117.4 807.8,116.9" style="fill:none;fill-rule:nonzero;stroke:rgb(53,168,224);stroke-width:3.7px;"/>
            <path d="M841.3,123.5C838.9,123.9 836.4,124 833.8,124C828.9,124 824.3,123.3 819.8,122.1" style="fill:none;fill-rule:nonzero;stroke:rgb(53,168,224);stroke-width:3.7px;"/>
            <path d="M775.7,96.6L766.2,91.8L761.4,101.3" style="fill:none;fill-rule:nonzero;stroke:rgb(53,168,224);stroke-width:3.7px;"/>
        </g>
    </g>
</svg>
