<?xml version="1.0" encoding="UTF-8" standalone="no"?>
<!DOCTYPE svg PUBLIC "-//W3C//DTD SVG 1.1//EN" "http://www.w3.org/Graphics/SVG/1.1/DTD/svg11.dtd">
<svg width="100%" height="100%" viewBox="0 0 236 116" version="1.1" xmlns="http://www.w3.org/2000/svg" xmlns:xlink="http://www.w3.org/1999/xlink" xml:space="preserve" xmlns:serif="http://www.serif.com/" style="fill-rule:evenodd;clip-rule:evenodd;stroke-linecap:round;stroke-linejoin:round;stroke-miterlimit:10;">
    <g id="Artboard1" transform="matrix(1,0,0,1,-487.855,-42.7395)">
        <rect x="487.855" y="42.74" width="235.679" height="115.959" style="fill:none;"/>
        <g transform="matrix(1,0,0,1,0.854506,0.739518)">
            <path d="M565.1,91.6C563.5,89.2 562.2,86.6 561.2,83.8" style="fill:none;fill-rule:nonzero;stroke:rgb(53,168,224);stroke-width:3.7px;"/>
            <path d="M621.4,91.4C615.4,100.6 605,106.7 593.2,106.7C585.1,106.7 577.7,103.9 571.9,99.1" style="fill:none;fill-rule:nonzero;stroke:rgb(53,168,224);stroke-width:3.7px;"/>
            <path d="M570.1,118.5C569.1,118 568.1,117.4 567.1,116.9" style="fill:none;fill-rule:nonzero;stroke:rgb(53,168,224);stroke-width:3.7px;"/>
            <path d="M600.6,123.5C598.2,123.9 595.7,124 593.1,124C588.3,124 583.6,123.3 579.1,122.1" style="fill:none;fill-rule:nonzero;stroke:rgb(53,168,224);stroke-width:3.7px;"/>
            <path d="M621.3,115.6C618.6,117.4 615.6,119 612.5,120.2" style="fill:none;fill-rule:nonzero;stroke:rgb(53,168,224);stroke-width:3.7px;"/>
            <path d="M556.4,108.4C551.1,102.9 547.1,96.3 544.7,89" style="fill:none;fill-rule:nonzero;stroke:rgb(53,168,224);stroke-width:3.7px;"/>
            <path d="M687.5,72.5C692.4,74.9 696.8,78.1 700.6,81.9" style="fill:none;fill-rule:nonzero;stroke:rgb(53,168,224);stroke-width:3.7px;stroke-linejoin:miter;"/>
            <path d="M629,81.9C638.2,72.8 650.9,67.2 664.8,67.2C668.3,67.2 671.8,67.6 675.2,68.3" style="fill:none;fill-rule:nonzero;stroke:rgb(53,168,224);stroke-width:3.7px;stroke-linejoin:miter;"/>
            <path d="M518.7,74.5C520.2,77.2 521.6,80.1 522.7,83" style="fill:none;fill-rule:nonzero;stroke:rgb(53,168,224);stroke-width:3.7px;"/>
            <path d="M510.9,63.4C512,64.7 513.1,66.1 514.1,67.5" style="fill:none;fill-rule:nonzero;stroke:rgb(53,168,224);stroke-width:3.7px;"/>
            <path d="M654.5,107.9C657.1,105.3 660.8,103.6 664.8,103.6C670.8,103.6 675.9,107.2 678.2,112.3" style="fill:none;fill-rule:nonzero;stroke:rgb(53,168,224);stroke-width:3.7px;"/>
            <path d="M644.2,121.1C641.3,124.2 638.1,127 634.7,129.5" style="fill:none;fill-rule:nonzero;stroke:rgb(53,168,224);stroke-width:3.7px;"/>
            <path d="M621.3,137.3C612.7,141.1 603.2,143.1 593.2,143.1C561.2,143.1 534.2,121.7 525.8,92.4" style="fill:none;fill-rule:nonzero;stroke:rgb(53,168,224);stroke-width:3.7px;"/>
            <path d="M621.3,115.6C618.6,117.4 615.6,119 612.5,120.2" style="fill:none;fill-rule:nonzero;stroke:rgb(53,168,224);stroke-width:3.7px;"/>
            <path d="M556.4,108.4C551.1,102.9 547.1,96.3 544.7,89" style="fill:none;fill-rule:nonzero;stroke:rgb(53,168,224);stroke-width:3.7px;"/>
            <path d="M570.1,118.5C569.1,118 568.1,117.4 567.1,116.9" style="fill:none;fill-rule:nonzero;stroke:rgb(53,168,224);stroke-width:3.7px;"/>
            <path d="M600.6,123.5C598.2,123.9 595.7,124 593.1,124C588.2,124 583.6,123.3 579.1,122.1" style="fill:none;fill-rule:nonzero;stroke:rgb(53,168,224);stroke-width:3.7px;"/>
            <path d="M636.1,100.5C640.7,93.1 648,87.7 656.7,85.5" style="fill:none;fill-rule:nonzero;stroke:rgb(53,168,224);stroke-width:3.7px;"/>
            <path d="M668.3,84.7C677.1,85.6 685,89.9 690.4,96.3" style="fill:none;fill-rule:nonzero;stroke:rgb(53,168,224);stroke-width:3.7px;"/>
            <path d="M535.1,96.6L525.6,91.8L520.7,101.3" style="fill:none;fill-rule:nonzero;stroke:rgb(53,168,224);stroke-width:3.7px;"/>
        </g>
    </g>
</svg>
