<?xml version="1.0" encoding="UTF-8" standalone="no"?>
<!DOCTYPE svg PUBLIC "-//W3C//DTD SVG 1.1//EN" "http://www.w3.org/Graphics/SVG/1.1/DTD/svg11.dtd">
<svg width="100%" height="100%" viewBox="0 0 102 79" version="1.1" xmlns="http://www.w3.org/2000/svg" xmlns:xlink="http://www.w3.org/1999/xlink" xml:space="preserve" xmlns:serif="http://www.serif.com/" style="fill-rule:evenodd;clip-rule:evenodd;stroke-linecap:round;stroke-linejoin:round;stroke-miterlimit:10;">
    <g id="Artboard1" transform="matrix(1,0,0,1,-361.742,-64.6872)">
        <rect x="361.742" y="64.687" width="101.516" height="78.957" style="fill:none;"/>
        <g transform="matrix(1,0,0,1,0.742205,0.687197)">
            <path d="M385.4,125.5C386.1,122.6 387.2,119.9 388.6,117.3" style="fill:none;fill-rule:nonzero;stroke:rgb(53,168,224);stroke-width:3.7px;"/>
            <path d="M394.5,109.5C400.4,103.8 408.4,100.3 417.3,100.3C428.2,100.3 437.8,105.6 443.8,113.8" style="fill:none;fill-rule:nonzero;stroke:rgb(53,168,224);stroke-width:3.7px;"/>
            <path d="M368.3,120.8C370.1,113.6 373.5,106.9 378,101.3" style="fill:none;fill-rule:nonzero;stroke:rgb(53,168,224);stroke-width:3.7px;"/>
            <path d="M433.3,85.2C438.1,86.8 442.6,89.1 446.7,92" style="fill:none;fill-rule:nonzero;stroke:rgb(53,168,224);stroke-width:3.7px;"/>
            <path d="M399.9,85.7C405.3,83.7 411.2,82.6 417.3,82.6C418.8,82.6 420.2,82.7 421.7,82.8" style="fill:none;fill-rule:nonzero;stroke:rgb(53,168,224);stroke-width:3.7px;"/>
            <path d="M388.5,91.6C389.4,91 390.3,90.4 391.2,89.8" style="fill:none;fill-rule:nonzero;stroke:rgb(53,168,224);stroke-width:3.7px;"/>
        </g>
    </g>
</svg>
