<?xml version="1.0" encoding="UTF-8" standalone="no"?>
<!DOCTYPE svg PUBLIC "-//W3C//DTD SVG 1.1//EN" "http://www.w3.org/Graphics/SVG/1.1/DTD/svg11.dtd">
<svg width="100%" height="100%" viewBox="0 0 487 146" version="1.1" xmlns="http://www.w3.org/2000/svg" xmlns:xlink="http://www.w3.org/1999/xlink" xml:space="preserve" xmlns:serif="http://www.serif.com/" style="fill-rule:evenodd;clip-rule:evenodd;stroke-linecap:round;stroke-miterlimit:10;">
    <g id="Artboard1" transform="matrix(1,0,0,1,-902.782,-27.0501)">
        <rect x="902.782" y="27.05" width="486.528" height="145.457" style="fill:none;"/>
        <g transform="matrix(1,0,0,1,0.781979,0.0500572)">
            <path d="M1051.1,94.3C1064.5,81.3 1081.6,72.1 1100.8,68.6" style="fill:none;fill-rule:nonzero;stroke:rgb(53,168,224);stroke-width:3.7px;"/>
            <path d="M1163.6,78.1C1178.4,85.9 1191,97.5 1200,111.6" style="fill:none;fill-rule:nonzero;stroke:rgb(53,168,224);stroke-width:3.7px;"/>
            <path d="M1121.8,67C1131.5,67.3 1140.9,69.1 1149.7,72.1" style="fill:none;fill-rule:nonzero;stroke:rgb(53,168,224);stroke-width:3.7px;"/>
            <path d="M1127.7,50.3C1149.2,52 1169,59.7 1185.5,71.8" style="fill:none;fill-rule:nonzero;stroke:rgb(53,168,224);stroke-width:3.7px;"/>
            <path d="M1104.7,50.8C1108.5,50.3 1112.4,50.1 1116.3,50" style="fill:none;fill-rule:nonzero;stroke:rgb(53,168,224);stroke-width:3.7px;"/>
            <path d="M1032.5,89.2C1046.2,73.3 1064.3,61.3 1084.8,55" style="fill:none;fill-rule:nonzero;stroke:rgb(53,168,224);stroke-width:3.7px;"/>
            <path d="M1034.1,111.5C1029.2,115.6 1023.8,119.3 1018.2,122.4" style="fill:none;fill-rule:nonzero;stroke:rgb(53,168,224);stroke-width:3.7px;"/>
            <path d="M937.7,127.8C936,127.1 934.2,126.4 932.6,125.7" style="fill:none;fill-rule:nonzero;stroke:rgb(53,168,224);stroke-width:3.7px;"/>
            <path d="M996,131.1C988.3,133.1 980.3,134.1 972,134.1C966.5,134.1 961.1,133.6 955.8,132.8" style="fill:none;fill-rule:nonzero;stroke:rgb(53,168,224);stroke-width:3.7px;"/>
            <path d="M1017.8,102.5C1007.4,109.8 995.3,114.7 982.1,116.3" style="fill:none;fill-rule:nonzero;stroke:rgb(53,168,224);stroke-width:3.7px;"/>
            <path d="M968.8,116.9C961.8,116.6 955,115.4 948.5,113.4" style="fill:none;fill-rule:nonzero;stroke:rgb(53,168,224);stroke-width:3.7px;"/>
            <path d="M1196.5,81C1201.2,85.5 1205.6,90.4 1209.5,95.6" style="fill:none;fill-rule:nonzero;stroke:rgb(53,168,224);stroke-width:3.7px;"/>
            <path d="M1340.1,131.9C1323.5,145 1302.5,152.8 1279.7,152.8" style="fill:none;fill-rule:nonzero;stroke:rgb(53,168,224);stroke-width:3.7px;"/>
            <path d="M1368.7,95.6C1363.5,106.9 1356.3,117 1347.5,125.5" style="fill:none;fill-rule:nonzero;stroke:rgb(53,168,224);stroke-width:3.7px;"/>
            <path d="M1259.5,150.7C1241.3,146.9 1224.9,138 1212,125.5" style="fill:none;fill-rule:nonzero;stroke:rgb(53,168,224);stroke-width:3.7px;"/>
            <path d="M1350.4,94.3C1340.6,112 1324.3,125.6 1304.7,132" style="fill:none;fill-rule:nonzero;stroke:rgb(53,168,224);stroke-width:3.7px;"/>
            <path d="M1291.5,135C1287.7,135.6 1283.8,135.8 1279.8,135.8C1254.9,135.8 1232.6,124.5 1217.7,106.8" style="fill:none;fill-rule:nonzero;stroke:rgb(53,168,224);stroke-width:3.7px;"/>
        </g>
    </g>
</svg>
